<svg width="63" height="63" viewBox="0 0 63 63" fill="none" xmlns="http://www.w3.org/2000/svg">
<path d="M31.5 44.625C32.1125 44.625 32.6266 44.4172 33.0422 44.0016C33.4578 43.5859 33.6656 43.0719 33.6656 42.4594C33.6656 41.8469 33.4578 41.3328 33.0422 40.9172C32.6266 40.5016 32.1125 40.2938 31.5 40.2938C30.8875 40.2938 30.3734 40.5016 29.9578 40.9172C29.5422 41.3328 29.3344 41.8469 29.3344 42.4594C29.3344 43.0719 29.5422 43.5859 29.9578 44.0016C30.3734 44.4172 30.8875 44.625 31.5 44.625ZM29.7281 34.5844H33.6656V17.9812H29.7281V34.5844ZM31.5 57.75C27.9125 57.75 24.5219 57.0609 21.3281 55.6828C18.1344 54.3047 15.3453 52.4234 12.9609 50.0391C10.5766 47.6547 8.69531 44.8656 7.31719 41.6719C5.93906 38.4781 5.25 35.0656 5.25 31.4344C5.25 27.8469 5.93906 24.4563 7.31719 21.2625C8.69531 18.0688 10.5766 15.2906 12.9609 12.9281C15.3453 10.5656 18.1344 8.69531 21.3281 7.31719C24.5219 5.93906 27.9344 5.25 31.5656 5.25C35.1531 5.25 38.5438 5.93906 41.7375 7.31719C44.9312 8.69531 47.7094 10.5656 50.0719 12.9281C52.4344 15.2906 54.3047 18.0688 55.6828 21.2625C57.0609 24.4563 57.75 27.8687 57.75 31.5C57.75 35.0875 57.0609 38.4781 55.6828 41.6719C54.3047 44.8656 52.4344 47.6547 50.0719 50.0391C47.7094 52.4234 44.9312 54.3047 41.7375 55.6828C38.5438 57.0609 35.1313 57.75 31.5 57.75ZM31.5656 53.8125C37.7344 53.8125 42.9844 51.6359 47.3156 47.2828C51.6469 42.9297 53.8125 37.6469 53.8125 31.4344C53.8125 25.2656 51.6469 20.0156 47.3156 15.6844C42.9844 11.3531 37.7125 9.1875 31.5 9.1875C25.3313 9.1875 20.0703 11.3531 15.7172 15.6844C11.3641 20.0156 9.1875 25.2875 9.1875 31.5C9.1875 37.6688 11.3641 42.9297 15.7172 47.2828C20.0703 51.6359 25.3531 53.8125 31.5656 53.8125Z" fill="#4C2626"/>
</svg>
