<svg width="316" height="42" viewBox="0 0 316 42" fill="none" xmlns="http://www.w3.org/2000/svg">
<path d="M32.5418 8.38127C37.7391 8.38127 42.3278 11.7525 42.3278 19.9933V33.1037H34.9298V20.2274C34.9298 17.1371 33.6187 14.796 30.2007 14.796C27.3445 14.796 25.4248 17.3244 24.8629 19.5719V33.1037H17.4649V20.2274C17.4649 17.1371 15.5452 14.796 12.7358 14.796C9.69231 14.796 7.86622 16.8562 7.39799 19.5719V33.1037H0V8.75585H7.39799V13.204C7.49164 12.0803 9.8796 8.38127 14.6555 8.38127C18.1672 8.38127 21.5385 10.2542 23.5518 13.6722C24.1137 12.3612 26.9231 8.38127 32.5418 8.38127ZM58.903 8.33445C64.4281 8.33445 72.1539 12.5017 70.6087 23.505H53.612C54.4549 26.0334 56.6555 27.3445 59.6054 27.3445C62.602 27.3445 63.5385 26.689 65.2241 25.9866L69.2977 29.9197C67.1438 32.0268 64.2408 33.5719 59.3244 33.5719C53.2843 33.5719 46.0736 29.4047 46.0736 21.0234C46.0736 12.5017 53.3779 8.33445 58.903 8.33445ZM58.903 14.6555C56.796 14.6555 54.6421 15.8729 53.7057 18.3077H64.0535C63.3044 15.8729 61.01 14.6555 58.903 14.6555ZM107.365 8.38127C112.562 8.38127 117.151 11.7525 117.151 19.9933V33.1037H109.753V20.2274C109.753 17.1371 108.441 14.796 105.023 14.796C102.167 14.796 100.247 17.3244 99.6856 19.5719V33.1037H92.2876V20.2274C92.2876 17.1371 90.3679 14.796 87.5585 14.796C84.5151 14.796 82.689 16.8562 82.2207 19.5719V33.1037H74.8227V8.75585H82.2207V13.204C82.3144 12.0803 84.7024 8.38127 89.4783 8.38127C92.99 8.38127 96.3612 10.2542 98.3746 13.6722C98.9365 12.3612 101.746 8.38127 107.365 8.38127ZM133.726 8.33445C139.251 8.33445 146.555 12.5017 146.555 21.0234C146.555 29.592 139.251 33.5719 133.726 33.5719C128.201 33.5719 120.896 29.592 120.896 21.0234C120.896 12.5017 128.201 8.33445 133.726 8.33445ZM133.726 14.8428C130.916 14.8428 128.06 16.9967 128.06 21.0234C128.06 24.9097 130.916 27.0635 133.726 27.0635C136.535 27.0635 139.438 24.9097 139.438 21.0234C139.438 16.9967 136.535 14.8428 133.726 14.8428ZM166.221 8.38127C166.876 8.38127 167.532 8.38127 168.14 8.52174V15.592C167.579 15.4515 166.923 15.4515 166.455 15.4515C161.96 15.4515 158.355 18.6823 157.98 23.1773V33.1037H150.582V8.75585H157.98V14.7023C159.104 11.0502 161.913 8.38127 166.221 8.38127ZM191.692 8.66221H199.044L184.154 42H176.756L181.251 32.2609L170.716 8.66221H178.067L184.903 24.301L191.692 8.66221ZM216.836 17.2308V23.4114H202.321V17.2308H216.836ZM228.729 0V33.1037H221.331V0H228.729ZM251.017 8.75585H258.415V33.1037H251.017V30.6689C250.689 31.5117 248.488 33.5719 244.743 33.5719C239.171 33.5719 232.756 29.592 232.756 20.8829C232.756 12.5017 239.171 8.33445 244.743 8.33445C248.488 8.33445 250.689 10.4883 251.017 11.0033V8.75585ZM245.819 27.0635C248.863 27.0635 251.345 24.9565 251.345 20.8829C251.345 16.9498 248.863 14.8428 245.819 14.8428C242.635 14.8428 239.92 16.9967 239.92 20.8829C239.92 24.9097 242.635 27.0635 245.819 27.0635ZM278.127 8.38127C282.669 8.38127 287.304 11.4248 287.304 19.1505V33.1037H279.906V19.6656C279.906 15.9666 278.642 14.796 276.301 14.796C272.977 14.796 271.057 18.0268 270.589 19.4314V33.1037H263.191V8.75585H270.589V12.9699C271.057 11.7993 273.539 8.38127 278.127 8.38127ZM303.88 8.33445C309.405 8.33445 317.13 12.5017 315.585 23.505H298.589C299.431 26.0334 301.632 27.3445 304.582 27.3445C307.579 27.3445 308.515 26.689 310.201 25.9866L314.274 29.9197C312.12 32.0268 309.217 33.5719 304.301 33.5719C298.261 33.5719 291.05 29.4047 291.05 21.0234C291.05 12.5017 298.355 8.33445 303.88 8.33445ZM303.88 14.6555C301.773 14.6555 299.619 15.8729 298.682 18.3077H309.03C308.281 15.8729 305.987 14.6555 303.88 14.6555Z" fill="#282828"/>
</svg>
