<svg width="63" height="63" viewBox="0 0 63 63" fill="none" xmlns="http://www.w3.org/2000/svg">
<path d="M27.6281 43.4437L46.2 24.8719L43.1813 21.9188L27.6281 37.4719L19.7531 29.5969L16.8 32.55L27.6281 43.4437ZM31.5 57.75C27.9125 57.75 24.5219 57.0609 21.3281 55.6828C18.1344 54.3047 15.3453 52.4234 12.9609 50.0391C10.5766 47.6547 8.69531 44.8656 7.31719 41.6719C5.93906 38.4781 5.25 35.0875 5.25 31.5C5.25 27.8687 5.93906 24.4563 7.31719 21.2625C8.69531 18.0688 10.5766 15.2906 12.9609 12.9281C15.3453 10.5656 18.1344 8.69531 21.3281 7.31719C24.5219 5.93906 27.9125 5.25 31.5 5.25C35.1313 5.25 38.5438 5.93906 41.7375 7.31719C44.9312 8.69531 47.7094 10.5656 50.0719 12.9281C52.4344 15.2906 54.3047 18.0688 55.6828 21.2625C57.0609 24.4563 57.75 27.8687 57.75 31.5C57.75 35.0875 57.0609 38.4781 55.6828 41.6719C54.3047 44.8656 52.4344 47.6547 50.0719 50.0391C47.7094 52.4234 44.9312 54.3047 41.7375 55.6828C38.5438 57.0609 35.1313 57.75 31.5 57.75ZM31.5 53.8125C37.7125 53.8125 42.9844 51.6359 47.3156 47.2828C51.6469 42.9297 53.8125 37.6688 53.8125 31.5C53.8125 25.2875 51.6469 20.0156 47.3156 15.6844C42.9844 11.3531 37.7125 9.1875 31.5 9.1875C25.3313 9.1875 20.0703 11.3531 15.7172 15.6844C11.3641 20.0156 9.1875 25.2875 9.1875 31.5C9.1875 37.6688 11.3641 42.9297 15.7172 47.2828C20.0703 51.6359 25.3313 53.8125 31.5 53.8125Z" fill="#223F21"/>
</svg>
